<svg id="Layer_1" xmlns="http://www.w3.org/2000/svg" width="360" height="86.3"><style>.st0{opacity:.6}.st1{fill:#fff}.st2{fill:#0068ab}.st3{fill:#d4622a}.st4{fill:#fcb713}.st5{fill:#d51734}.st6{fill:#d7c6a1}.st7{fill:#0067aa}</style><g class="st0"><path class="st1" d="M222.8 68.8c.1-.3.1-.5.1-.6 0-.3-.4-.4-.8-.4h-.5c-.1 0-.2-.1-.1-.2l.1-.4c0-.1.1-.1.3-.1.3 0 3.8-.1 4.4-.1.6 0 2.2.1 3.2.5.6.3 1.1.9 1.1 1.7 0 1.9-2 2.7-4 2.9v.1c2 .4 2.9 1.3 2.9 2.5 0 .2-.1 1.1-1 1.9-.7.6-1.8.9-4.2.9-1 0-1.9-.1-2.8-.1-.9 0-1.7.1-2.6.1-.2 0-.2-.1-.2-.2l.1-.3c0-.1.1-.1.2-.1h.6c.6 0 .8-.4 1-.9l2.2-7.2zm.2 7.2c-.1.4-.2.8.2 1 .2.1.8.2 1.2.2 1.6 0 2.5-1.3 2.5-2.6 0-1.7-1.8-2-2.8-2L223 76zm1.3-4.1c.2.1.5.1.8.1 1.5 0 3.1-.8 3.1-2.6 0-.9-.9-1.7-1.9-1.7-.2 0-.4 0-.6.1l-1.4 4.1zM232.8 77.6c-.2 0-.2-.1-.2-.2l.9-2.5c.3-.9.9-2.4.9-2.7 0-.2-.2-.3-.3-.3-.3 0-1 .5-1.2.9-.1.1-.2.1-.2.1l-.2-.1c-.1-.1-.1-.1 0-.2.3-.5 1.4-1.6 3-1.6.7 0 1 .3 1 .6s-.4 1.1-.8 2.1l.2.1c.5-.9 1.6-2.8 2.9-2.8.6 0 1.1.4 1.1.9 0 .6-.5 1-.8 1-.3 0-.5-.1-.6-.1-.2-.1-.3-.2-.5-.2-.6 0-1.6 1.2-2 2-.2.4-.4.8-.6 1.4l-.6 1.6c-.1.1-.2.1-.3.1l-1.7-.1zM245.5 76c.1.1.1.1 0 .2s-1.2 1.6-3.6 1.6c-.6 0-.7-.3-.7-.5 0-.3.3-1 1.1-2.9l.5-1.2c.2-.4.3-.7.3-.9 0-.1-.1-.2-.3-.2-.3 0-1.1.8-1.4 1.1-.1.1-.2.1-.2 0l-.2-.2c-.1-.1-.1-.1-.1-.2.1-.1 1.6-1.9 3.5-1.9.6 0 .8.3.8.6 0 .4-.2.8-.6 1.7l-1 2.4c-.3.6-.3.8-.3 1 0 .1.1.2.3.2.4 0 1.3-.8 1.4-1 .1-.1.1-.1.2 0l.3.2zm.6-7.6c0 .5-.6 1-1.3 1-.7 0-1.2-.4-1.2-1 0-.5.5-1 1.2-1 .9.1 1.3.5 1.3 1zM246.1 80.3c0-.5.1-.8.7-1.2.8-.5 1.8-.9 2.4-1.1-.6-.4-.7-.6-.7-1s.7-.8 1.7-1.2v-.1c-1.1-.5-1.6-.9-1.6-2s1.4-2.9 3.9-2.9c1.3 0 1.8.5 2 .7.4-.3 1-.6 1.5-.6.6 0 .9.4.9.7 0 .4-.4.7-.8.7-.2 0-.5-.1-.6-.3-.1-.1-.2-.2-.3-.2-.2 0-.3.1-.4.2.1.2.1.5.1.8 0 .7-1 2.6-3.2 2.8-.4.1-.8.1-.8.1-.4.2-.6.4-.6.7 0 .2.3.4.5.5.4.2 1.3.6 2.7 1.2 1.1.5 1.5 1.1 1.5 1.6 0 .6-.3 1.3-1.5 1.8-.8.4-1.7.6-3.1.6-2.6.2-4.3-.8-4.3-1.8zm6.5.2c0-.7-.3-.9-1.4-1.4-.2-.1-1.4-.6-1.7-.8-.8.4-1.4.9-1.4 1.7 0 1.1 1.1 1.6 2.6 1.6.8 0 1.9-.3 1.9-1.1zm-1.4-5.1c1 0 1.7-1.7 1.7-2.9 0-.7 0-1-.5-1-.4 0-.7.2-1 .7-.8 1.2-.8 1.6-.8 2.4 0 .6.2.8.6.8zM261.3 73.2l.2.1c.8-1.1 2.1-2.3 3.4-2.3 1.4 0 1.7.9 1.7 1.7 0 1.1-.5 2.4-1.2 3.4-.9 1.3-2 2.1-3.3 2.1-.6 0-1.2-.3-1.2-1 0-.4.3-.8.8-.8s.7.3.8.6c0 .3.1.6.4.6.4 0 .7-1 1-1.8.3-.9.6-2 .6-2.8 0-.5-.2-.7-.6-.7-.7 0-1.8 1.2-2.3 1.8-.5.5-.8 1.1-1 1.4l-1.1 2.2c-.1.1-.2.1-.3.1h-1.6c-.2 0-.3-.1-.2-.2l3.8-8.7c.1-.3.3-.6.3-.8 0-.2-.2-.3-.6-.3h-.5c-.1 0-.2-.1-.1-.1l.1-.3c.1-.1.1-.1.2-.1h3.3c.2 0 .2.1.2.2s-.1.3-.2.6l-2.6 5.1zM273.1 71.4h1.9c.1 0 .2.1.1.2l-.1.4c-.1.1-.1.2-.3.2h-1.9l-1.5 3.4c-.1.3-.3.7-.3.8s.2.3.4.3c.4 0 1.5-.7 1.6-.8.1-.1.1-.1.2 0l.2.2.1.1c-.3.3-1.8 1.6-3.7 1.6-.7 0-1-.3-1-.6s.1-.7.2-1l1.7-4.1h-1.4c-.1 0-.2-.1-.1-.2l.1-.4c.1-.1.1-.1.2-.1h1.5l.6-1.7c.1-.2.2-.2.6-.2.5-.1 1.5-.4 1.6-.5.1-.1.2-.1.3-.1.2 0 .2.2.2.3l-1.2 2.2zM286.6 71.9l1.8-.1c1.3 0 2-.6 2.3-1.6.1-.1.2-.1.2-.1l.4.1c.1 0 .1.1.1.2l-1.1 3.9c0 .1-.1.1-.2.1h-.4c-.2 0-.2-.1-.2-.2.2-1.1-.2-1.6-1.3-1.7l-1.9-.1-1.3 3.5c-.4 1 0 1.2.6 1.2h.6c.2 0 .2.1.2.1l-.2.4c0 .1-.1.1-.2.1-.2 0-.8-.1-2.7-.1-1.9 0-2.3.1-2.5.1-.1 0-.2-.1-.2-.1l.1-.4c0-.1.1-.1.2-.1h.5c.5 0 .9-.3 1.1-.9l2.9-7.8c.2-.4 0-.6-.4-.6h-.5c-.2 0-.2-.1-.2-.2l.1-.4c0-.1.1-.1.2-.1.3 0 1 .1 2.3.1 2.8 0 4.1-.1 4.6-.1 1.1 0 1.6-.2 1.9-.2.2 0 .2.1.2.3 0 .4.4 2.3.4 2.4 0 .1 0 .1-.1.2l-.3.1c-.1.1-.2 0-.3-.1-.2-.3-1.3-1.5-1.6-1.8-.4-.2-.2-.2-.9-.2-.3 0-2.3-.1-2.9-.1l-1.3 4.2zM303.2 71.1c.2 0 .3.1.2.2l-1.3 3.3c-.5 1.2-.7 1.8-.7 1.9s.2.2.3.2c.3 0 .7-.5 1-.8.1-.1.2-.1.2 0l.2.1c.1.1.1.1 0 .2-.3.4-1.3 1.6-3 1.6-.5 0-.8-.2-.8-.5s.7-1.9.9-2.4l-.2-.1c-.7.9-2.3 3-4.1 3-.5 0-1-.5-1-.8 0-.7.4-1.4 1.1-2.9.5-1 .8-1.7.8-1.9 0-.2-.2-.3-.3-.3-.3 0-.8.4-1.3.8-.1.1-.2.1-.2 0l-.2-.2c-.1-.1-.1-.1 0-.2.4-.4 1.4-1.5 3.2-1.5.6 0 1 .4 1 .7s-.3 1.1-1 2.7c-.5 1-.8 1.7-.8 1.9 0 .2.2.3.3.3.3 0 2-1.7 2.5-2.3.3-.5.6-.9.8-1.5l.6-1.5c.1-.1.2-.1.3-.1h1.5v.1zM310 71.4h1.9c.1 0 .2.1.1.2l-.2.4c-.1.1-.1.2-.3.2h-1.9l-1.5 3.4c-.1.3-.3.7-.3.8s.2.3.4.3c.4 0 1.5-.7 1.6-.8.1-.1.1-.1.2 0l.2.2.1.1c-.3.3-1.8 1.6-3.7 1.6-.7 0-1-.3-1-.6s.1-.7.2-1l1.7-4.1h-1.4c-.1 0-.2-.1-.1-.2l.1-.4c.1-.1.1-.1.2-.1h1.5l.6-1.7c.1-.2.2-.2.6-.2.5-.1 1.5-.4 1.6-.5.1-.1.2-.1.3-.1.2 0 .2.2.2.3l-1.1 2.2zM321.6 71.1c.2 0 .3.1.2.2l-1.3 3.3c-.5 1.2-.7 1.8-.7 1.9s.2.2.3.2c.3 0 .7-.5 1-.8.1-.1.2-.1.2 0l.2.1c.1.1.1.1 0 .2-.3.4-1.3 1.6-3 1.6-.5 0-.8-.2-.8-.5s.7-1.9.9-2.4l-.2-.1c-.7.9-2.3 3-4.1 3-.5 0-1-.5-1-.8 0-.7.4-1.4 1.1-2.9.5-1 .8-1.7.8-1.9 0-.2-.2-.3-.3-.3-.3 0-.8.4-1.3.8-.1.1-.2.1-.2 0l-.2-.2c-.1-.1-.1-.1 0-.2.4-.4 1.4-1.5 3.2-1.5.6 0 1 .4 1 .7s-.3 1.1-1 2.7c-.5 1-.8 1.7-.8 1.9 0 .2.2.3.3.3.3 0 2-1.7 2.5-2.3.3-.5.6-.9.8-1.5l.6-1.5c.1-.1.2-.1.3-.1h1.5v.1zM324.5 77.6c-.2 0-.2-.1-.2-.2l.9-2.5c.3-.9.9-2.4.9-2.7 0-.2-.2-.3-.3-.3-.3 0-1 .5-1.2.9-.1.1-.2.1-.2.1l-.2-.1c-.1-.1-.1-.1 0-.2.3-.5 1.4-1.6 2.9-1.6.7 0 1 .3 1 .6s-.4 1.1-.8 2.1l.2.1c.5-.9 1.6-2.8 2.9-2.8.6 0 1.1.4 1.1.9 0 .6-.5 1-.8 1-.3 0-.5-.1-.6-.1-.2-.1-.3-.2-.5-.2-.6 0-1.6 1.2-2 2-.2.4-.4.8-.6 1.4l-.6 1.6c-.1.1-.2.1-.3.1l-1.6-.1zM338.3 76c.1.1.1.1.1.2-.4.6-1.7 1.6-3.5 1.6-1.3 0-2.2-.7-2.2-1.7 0-1.2.6-2.8 2.2-3.9.9-.7 2-1.1 3.1-1.1 1 0 1.5.5 1.5 1.1 0 .9-.6 1.5-1.7 2-1 .5-2 .7-2.7.7-.1.2-.2.6-.2 1 0 .6.4 1 1 1 .9 0 1.6-.4 2-.8.1-.1.1-.1.2-.1h.2zm-1.5-2.4c.3-.3.6-.8.6-1.3 0-.3-.1-.5-.5-.5-.7 0-1.5 1.4-1.8 2.4.4 0 1.2-.2 1.7-.6z"/></g><g class="st0"><path class="st1" d="M66.7 68.8c.2-.5.2-1.1-.4-1.1h-.9c-.1 0-.1-.1-.1-.2l.1-.4c0-.1.1-.1.3-.1s3.5-.1 4.3-.1c2.1 0 3 .2 3.9.8.8.6 1.1 1.1 1.1 2.2 0 1.8-1.6 3.5-5.5 3.5-.7 0-1.4-.1-1.8-.2L67 76c-.2.6-.1 1.2.6 1.2h.8c.2 0 .2.1.2.2l-.1.4c0 .1-.1.2-.2.2-.2 0-1-.1-2.8-.1-1.7 0-2.4.1-2.7.1-.1 0-.2-.1-.2-.2l.1-.3c0-.1.1-.2.2-.2h.3c.8 0 1.1-.6 1.4-1.2l2.1-7.3zm1.4 3.9c.4.2 1 .3 1.4.3 2 0 3.1-1.7 3.1-3.1 0-1.8-1.7-2.2-2.2-2.2-.3 0-.4 0-.7.1l-1.6 4.9zM77.8 77.7c-.2 0-.2-.1-.2-.2l.9-2.6c.3-.9.9-2.5.9-2.7 0-.2-.2-.3-.3-.3-.3 0-1 .5-1.2.9-.1.1-.2.1-.2.1l-.2-.1c-.1-.1-.1-.1 0-.2.3-.5 1.4-1.6 3-1.6.7 0 1 .4 1 .6 0 .3-.4 1.1-.8 2.1l.2.1c.5-.9 1.6-2.8 2.9-2.8.6 0 1.1.4 1.1.9 0 .6-.5 1-.9 1-.3 0-.5-.1-.6-.2-.2-.1-.3-.2-.5-.2-.6 0-1.6 1.3-2 2.1-.2.4-.4.9-.6 1.4l-.6 1.6c-.1.1-.2.1-.3.1h-1.7zM86.6 75.4c0-1.3.4-2.6 1.5-3.6.8-.7 1.7-.9 2.7-.9 1 0 2.6.4 2.6 2.3 0 .9-.4 2.6-1.6 3.7-.7.7-1.6.9-2.7.9-1.1.1-2.5-.6-2.5-2.4zm4.1 0c.6-.9 1.1-2.3 1.1-2.8 0-.4-.2-.7-.7-.7-.7 0-1.3.6-2.1 1.8-.7 1-.9 1.9-.9 2.6 0 .3.2.7.7.7.6-.1 1.2-.4 1.9-1.6zM104.9 71.1c.2 0 .3.1.2.2l-1.3 3.4c-.5 1.3-.7 1.8-.7 1.9 0 .2.2.2.3.2.3 0 .7-.5 1-.9.1-.1.2-.1.2 0l.2.1c.1.1.1.1 0 .2-.3.4-1.3 1.6-3 1.6-.5 0-.8-.2-.8-.6 0-.3.7-1.9.9-2.4l-.2-.1c-.7.9-2.3 3-4.1 3-.5 0-1-.5-1-.8 0-.7.4-1.4 1.1-2.9.5-1.1.8-1.7.8-1.9 0-.2-.2-.3-.3-.3-.3 0-.9.4-1.3.8-.1.1-.2.1-.2 0l-.2-.2c-.1-.1-.1-.1 0-.2.4-.4 1.4-1.5 3.2-1.5.6 0 1 .4 1 .8s-.3 1.2-1 2.7c-.5 1-.8 1.7-.8 2 0 .2.2.3.3.3.3 0 2-1.7 2.5-2.4.3-.5.6-.9.8-1.5l.6-1.5c.1-.1.2-.1.3-.1l1.5.1zM117.3 66.9c.3 0 .3.2.3.4-.3.6-3 7.9-3.2 8.9-.1.5-.1.7.2.7s1-.7 1.1-.8c.1-.1.2-.1.2 0l.2.2c.1.1.1.1 0 .2-.2.2-1.3 1.4-3.1 1.4-.5 0-.7-.2-.7-.5 0-.4.3-1.3.7-2.1l-.2-.1c-.9 1.2-2 2.7-3.5 2.7-.9 0-1.5-.9-1.5-1.5 0-1 .7-2.7 2.2-4.1.6-.5 1.6-1.3 2.8-1.3.5 0 1.1.2 1.4.5l1.1-3.2c.1-.4-.1-.7-.5-.7h-.8c-.2 0-.2-.1-.2-.1l.1-.4c0-.1.1-.1.3-.1h3.1v-.1zm-4.9 4.6c-1 0-2.5 3.5-2.5 4.6 0 .4.2.6.5.6.4 0 1.2-1 1.9-1.8.5-.6 1.2-1.7 1.2-2.3-.2-.7-.4-1.1-1.1-1.1zM136.2 76c-.2.6-.1 1.1.3 1.1h.7c.2 0 .2.1.2.2l-.1.4c0 .1-.1.1-.2.1-.2 0-.8-.1-2.5-.1s-2.5.1-2.7.1c-.2 0-.2-.1-.2-.2l.1-.4c0-.1.1-.1.2-.1h.5c.6 0 .9-.3 1.4-1.4l1.2-3c.1-.2 0-.2-.2-.2h-5.2c-.2 0-.3.1-.4.2l-1.3 3.4c-.3.9 0 1 .6 1h.5c.1 0 .2.1.2.1l-.1.4c0 .1-.1.2-.2.2-.2 0-.9-.1-2.8-.1-1.7 0-2.3.1-2.5.1-.1 0-.2-.1-.2-.1l.1-.4c0-.1.1-.1.2-.1h.5c.6 0 1-.4 1.3-1.2l2.9-7.5c.2-.5-.2-.8-.5-.8h-.7c-.1 0-.2-.1-.2-.1l.1-.4c0-.1.1-.2.2-.2.2 0 1.2.1 2.8.1 1.3 0 2.2-.1 2.4-.1.2 0 .2.1.2.2l-.1.4c0 .1-.1.1-.2.1h-.4c-.6 0-.9.2-1.1.8l-1.3 3.3c-.1.2 0 .2.2.2h5.2c.2 0 .2-.1.3-.2l1.3-3.4c.2-.5-.2-.7-.6-.7h-.3c-.1 0-.2 0-.1-.1l.1-.4c0-.1.1-.1.2-.1.2 0 1.1.1 2.5.1 1.2 0 2-.1 2.2-.1.2 0 .2.1.2.1l-.1.4c0 .1-.1.1-.2.1h-.4c-.5 0-.9.2-1.1.8l-2.9 7.5zM146.9 76.1c.1.1.1.1.1.2-.4.6-1.7 1.6-3.5 1.6-1.3 0-2.2-.7-2.2-1.8 0-1.2.6-2.8 2.3-4 .9-.7 2-1.1 3.1-1.1 1 0 1.5.5 1.5 1.1 0 .9-.6 1.5-1.7 2.1-1 .5-2 .7-2.7.7-.1.2-.2.6-.2 1 0 .6.4 1 1 1 .9 0 1.6-.4 2-.8.1-.1.1-.1.2-.1l.1.1zm-1.5-2.5c.3-.3.6-.8.6-1.3 0-.3-.1-.6-.5-.6-.7 0-1.5 1.4-1.8 2.5.3 0 1.2-.2 1.7-.6zM150.9 77.7c-.2 0-.2-.1-.2-.2l.9-2.6c.3-.9.9-2.5.9-2.7 0-.2-.2-.3-.3-.3-.3 0-1 .5-1.2.9-.1.1-.2.1-.2.1l-.2-.1c-.1-.1-.1-.1 0-.2.3-.5 1.4-1.6 3-1.6.7 0 1 .4 1 .6 0 .3-.4 1.1-.8 2.1l.2.1c.5-.9 1.6-2.8 2.9-2.8.6 0 1.1.4 1.1.9 0 .6-.5 1-.9 1-.3 0-.5-.1-.6-.2-.2-.1-.3-.2-.5-.2-.6 0-1.6 1.3-2 2.1-.2.4-.4.9-.6 1.4l-.6 1.6c-.1.1-.2.1-.3.1h-1.7zM164.3 76c.1.1.1.1 0 .2-.1.2-1.3 1.7-3.6 1.7-.6 0-.7-.3-.7-.5 0-.3.3-1 1.1-2.9l.5-1.3c.2-.4.3-.7.3-.9 0-.1-.1-.2-.3-.2-.3 0-1.1.8-1.4 1.1-.1.1-.2.1-.2 0l-.2-.2c-.1-.1-.1-.1-.1-.2.1-.1 1.6-1.9 3.6-1.9.6 0 .8.3.8.6 0 .4-.2.8-.6 1.7l-1 2.4c-.3.6-.3.8-.3 1 0 .1.1.2.3.2.4 0 1.3-.9 1.4-1 .1-.1.1-.1.2 0l.2.2zm.6-7.7c0 .5-.6 1.1-1.3 1.1-.7 0-1.2-.4-1.2-1 0-.5.5-1 1.2-1 .9 0 1.3.4 1.3.9zM171.5 71.4h1.9c.1 0 .2.1.1.2l-.2.4c-.1.1-.1.2-.3.2h-1.8l-1.5 3.5c-.1.3-.3.7-.3.9 0 .2.2.3.4.3.4 0 1.5-.7 1.6-.8.1-.1.1-.1.2 0l.2.2.1.1c-.3.3-1.8 1.6-3.7 1.6-.7 0-1-.4-1-.6 0-.3.1-.7.2-1l1.7-4.2h-1.5c-.1 0-.2-.1-.1-.2l.1-.4c.1-.1.1-.1.2-.1h1.6l.6-1.7c.1-.2.2-.2.7-.2.5-.1 1.5-.4 1.6-.5.1-.1.2-.1.3-.1.2 0 .2.2.2.3l-1.3 2.1zM182.8 70.8c.2 0 .2.1.2.2-.3.7-1.2 2.8-1.3 3.3-.1.3-.7 2-.7 2.3 0 .1.1.2.2.2.3 0 .9-.7 1.1-.9.1-.1.2-.1.2-.1l.2.1c.1.1.1.1 0 .2-.2.3-1.2 1.7-2.9 1.7-.6 0-.8-.3-.8-.5s.1-.5.7-2.1l-.2-.1c-.7 1-2 2.6-3.7 2.6-.5 0-1.3-.6-1.3-1.2 0-2 2.3-5.7 5-5.7.9 0 1.2.3 1.5.6l.3-.5c.1-.1.2-.2.4-.2l1.1.1zm-5.7 5.7c.5 0 2.2-2.1 2.6-2.7.2-.4.4-1 .4-1.5 0-.4-.5-.7-.8-.7-.5 0-.9.4-1.4 1.1-.9 1.4-1.3 2.6-1.3 3.4 0 .3.2.4.5.4zM183.5 80.4c0-.5.1-.8.7-1.2.8-.5 1.8-.9 2.4-1.1-.6-.4-.7-.6-.7-1s.7-.8 1.7-1.2v-.1c-1.1-.5-1.6-.9-1.6-2s1.4-3 3.9-3c1.3 0 1.8.5 2 .8.4-.3 1-.6 1.6-.6.6 0 .9.4.9.7 0 .4-.4.7-.8.7-.2 0-.5-.1-.6-.3-.1-.1-.2-.2-.3-.2-.2 0-.3.1-.4.2.1.2.1.5.1.9 0 .8-1.1 2.7-3.2 2.9-.4.1-.8.1-.9.1-.4.2-.7.4-.7.7 0 .2.3.4.5.5.4.2 1.3.6 2.7 1.2 1.1.6 1.5 1.1 1.5 1.6 0 .6-.3 1.3-1.5 1.8-.8.4-1.7.6-3.2.6-2.3 0-4.1-1-4.1-2zm6.6.2c0-.7-.3-.9-1.4-1.4-.2-.1-1.4-.7-1.7-.8-.8.4-1.4.9-1.4 1.7 0 1.2 1.1 1.7 2.6 1.7.8 0 1.9-.4 1.9-1.2zm-1.5-5.2c1 0 1.7-1.8 1.7-3 0-.7 0-1-.5-1-.4 0-.7.2-1 .8-.8 1.2-.8 1.6-.8 2.5 0 .5.2.7.6.7zM201.5 76.1c.1.1.1.1.1.2-.4.6-1.7 1.6-3.5 1.6-1.3 0-2.2-.7-2.2-1.8 0-1.2.6-2.8 2.3-4 .9-.7 2-1.1 3.1-1.1 1 0 1.5.5 1.5 1.1 0 .9-.6 1.5-1.7 2.1-1 .5-2 .7-2.7.7-.1.2-.2.6-.2 1 0 .6.4 1 1 1 .9 0 1.6-.4 2-.8.1-.1.1-.1.2-.1l.1.1zm-1.5-2.5c.3-.3.6-.8.6-1.3 0-.3-.1-.6-.5-.6-.7 0-1.5 1.4-1.8 2.5.4 0 1.2-.2 1.7-.6z"/></g><path class="st1" d="M204.1 34.3c1.6 0 3.4-.2 4.1-.4.7-.1 1.5-.9 2.2-2.1.5-.8.8-2 .9-3.1.1-.3.2-.5.4-.5l1 .1c.2 0 .3.2.3.4-.1 1-.1 5.8-.1 6.6 0 2.1.2 4.9.2 6.1 0 .3-.1.4-.3.5l-.9.3c-.2.1-.3-.1-.4-.5-.1-.5-.6-2.2-.8-2.8-.5-1-1.3-2-2.1-2.3-1.4-.4-2.8-.4-4.5-.4v2.2c0 1.8.1 11.5.1 12.3 0 1.6.4 1.9 1 1.9h2.5c.3 0 .4.1.4.4v1.6c0 .4-.1.5-.4.5-.4 0-2.1-.2-6.5-.2-4.1 0-5.7.2-6.4.2-.2 0-.3-.1-.3-.5V53c0-.3.1-.3.3-.3h1.5c.9 0 1.2-.3 1.3-1.2.1-1.2.2-8.5.2-18.5v-4c0-2.6-.1-10.8-.1-11.4 0-1.1-.6-1.7-1.7-1.7h-1.7c-.3 0-.4-.1-.4-.4v-1.7c0-.3.2-.4.3-.4.5 0 2.1.2 7.2.2.6 0 11.7-.2 13.7-.2.9 0 1.9-.3 2.2-.3.2 0 .4.4.4 1l1.8 9.4c.1.3 0 .4-.1.5l-.9.7c-.2.1-.3 0-.6-.6-.6-1-1.6-2.8-3.3-5.4-.8-1.2-1.9-2.3-2.9-2.6-1.1-.4-5.5-.6-7.4-.6 0 .8-.1 12.3-.1 15.9l-.1 2.9zM225.3 51.9c-3-2.5-6.2-8.8-6.2-17.3 0-3.5.7-9.1 3.9-14.5 3.7-6.2 8.4-7.4 12.2-7.4 3.5 0 6.7.8 10.3 4.6 3.2 3.5 5.8 9.4 5.8 17.4 0 4.2-1 8.7-3.1 12.7-2.7 4.7-6.3 8.2-13 8.2-2.9.1-6.6-.8-9.9-3.7zm19.4-16.6c0-12.7-6.1-19.8-9.6-19.8-.9 0-2.9-.3-5.5 3.1-2.5 3.3-3.7 9.3-3.7 14.1 0 14.9 6.2 20.2 9.7 20.2 7.7.1 9.1-12.9 9.1-17.6z"/><path class="st1" d="M254.2 28.4c0-4.3 0-8-.1-9.6-.1-1.9-.6-2.9-1.2-2.9h-1.7c-.2 0-.3-.2-.3-.4v-1.6c0-.3.1-.4.3-.4.4 0 1.7.2 6.3.2 2.4 0 6.1-.2 7.8-.2 3.3 0 5.7 1.6 7.4 3.8 1.5 1.9 2.4 4.2 2.4 6.4 0 7.4-4 10.7-7.7 11.2v.4c1.3.6 2 1.7 2.8 3.1.6.9 2.9 6.1 3.2 6.8.3.5 2.5 5 3.4 6.3.5.8 2.1 1.2 3.1 1.2.3 0 .4.3.4.5v1.4c0 .4-.1.5-.4.5-.4 0-1.4-.2-4.6-.2-1.2 0-2.8.1-4 .2-1.3-1.3-3.9-8.1-4.6-10.1-1.4-3.9-3.1-8.3-5.2-8.3h-1.4v3c0 3.4.2 10 .2 10.7.1 1.2.4 2.3 1.1 2.3h1.7c.3 0 .4.2.4.5v1.4c0 .4-.1.5-.7.5-.1 0-1.1-.2-5.5-.2s-5.4.2-5.9.2c-.4 0-.4-.2-.4-.6v-1.3c0-.3 0-.5.2-.5h1.3c.9 0 1.7-.4 1.7-1.9.1-5.8.1-11.2.1-16.8l-.1-5.6zm6 6.3c.8.1 1.3.1 1.7.1 5.6 0 6.9-7.3 6.9-10.1 0-2.7-.7-5.3-1.6-6.5-1.5-1.9-3.4-2.6-4.6-2.6-.7 0-1.3.1-1.6.5-.3.3-.4.9-.5 1.6l-.3 17zM291.6 32.6c1.9 0 3.8-.2 4.3-.4.7-.3 1.3-.8 1.9-1.8.5-.9 1-2.5 1-3.6 0-.4.1-.5.4-.5l1.1.2c.2.1.4.1.4.5-.1 1-.1 4-.1 6.1 0 2.6.2 5.4.3 6.6.1.4-.1.4-.4.5l-1 .3c-.2.1-.3-.1-.4-.5-.2-.9-.6-2.3-.9-3-.5-1.1-1.5-1.9-2.3-2-1.1-.3-2.4-.4-4.3-.4V38c0 3.1.2 8.8.2 9.9 0 3 .5 4.1 1 4.4.7.4 1.4.5 3.5.5.7 0 2.5-.1 3.4-.2.9-.1 2.1-.7 3.2-1.9s3.4-4.9 4.3-6.2c.2-.3.3-.3.4-.2l.7.6c.2.1.2.3.2.5l-1.9 8.8c-.1.5-.4.9-.9.9-.2 0-1.1-.1-3.8-.1-2.7 0-7.2-.1-14.5-.1-1.6 0-2.7.1-3.6.1-.9.1-1.4.1-1.8.1-.3 0-.4-.2-.4-.7v-1.2c0-.4.2-.5.4-.5h1.3c1.9 0 2.1-.4 2.1-2.4V30.7c0-4.9-.1-12-.1-12.6-.2-1.9-.6-2.3-1.7-2.3h-1.5c-.2 0-.2-.2-.2-.6v-1.4c0-.2.1-.4.3-.4.9 0 2.4.2 6.2.2l14.8-.1c.7 0 1.5-.1 1.7-.1s.3.1.4.3c.2.8 1.6 8.8 1.7 9.3.1.3.1.4-.1.6l-.7.5c-.2.1-.4.1-.5-.3-.2-.5-4-5.7-5-6.5-.9-.8-2.1-1.5-3.2-1.6l-5.6-.3-.3 17.2zM311.6 42c.2 0 .3.1.3.5.1 1.8.7 4.3 1.7 6.6 1.2 2.7 3.3 3.9 5.3 3.9s5.3-1.9 5.3-6.5c0-4.9-.7-6.2-6.2-9.1-1.3-.7-3.9-2.5-6.1-5.1-1.5-1.8-2.1-4.9-2.1-8.3 0-3.5.6-6 3.1-8.5 1.9-2 3.5-2.8 6.1-2.8 3.1 0 4.7.7 5.6 1.2.4.3.7.1 1-.3l.6-.8c.2-.3.4-.4.6-.4.3 0 .4.7.4 1l.7 10c0 .3-.1.3-.2.4l-.9.4c-.2.1-.4 0-.6-.4-.5-1.7-1.2-3.9-2.6-6.1-1.1-1.6-2.3-2.4-4.2-2.4-3.1 0-4.4 3.8-4.4 5.3 0 2.2.1 3.9 1.1 5.4 1.1 1.6 3.5 3 5.6 3.8 2 .8 3.6 2.3 5.4 4.4 1.6 2 2.3 4.6 2.3 8.7 0 7.1-3.6 12.9-9.2 12.9-3.8 0-5.8-.9-7.5-2.5-.5-.5-.8-.7-1-.7-.3 0-.4.4-.7 1-.3.7-.5.7-.8.7-.5 0-.7-.3-.6-.9l.7-11.1c.1-.4.2-.4.4-.4l.9.1zM341.3 16.3h-1.5c-1.4 0-3.9.1-5.7.9-.9.9-2.8 4.5-3.8 6.6-.1.3-.3.5-.4.4l-.9-.5c-.2-.1-.2-.4-.2-.5.5-2.4 1.9-10.1 2-11.3.1-.8.4-1 .7-1s.4.3.8.9c.5.8 1.3 1.3 2.8 1.5 2.2.2 4 .4 8.4.4h2.4c4.6 0 6.4-.3 8.2-.4.9-.1 2.6-.8 3.1-1.5.4-.6.7-.9 1-.9s.4.3.5.9c.2 1.3.9 8.5 1.3 11.6.1.3-.1.5-.2.5l-.9.5c-.2.1-.3-.1-.4-.5-.9-2.1-2.6-5.1-3.6-6.5-1.1-.9-4.8-1.1-5.8-1.1h-1.4v16.1c0 .8 0 17.1.1 18 .1 1.5.4 2.3 1.4 2.3h1.9c.4 0 .4.2.4.6v1.4c0 .3-.1.5-.4.5-.4 0-1.8-.2-6.4-.2-4.4 0-6.2.2-6.8.2-.4 0-.4-.3-.4-.7v-1.1c0-.4.1-.6.3-.6h2.2c.9 0 1.4-.7 1.4-1.8.1-1.2.1-19.1.1-20.2V16.3h-.2zM64.1 28.2c0-4.3 0-8-.1-9.6-.1-1.9-.6-2.9-1.1-2.9h-1.5c-.2 0-.3-.2-.3-.4v-1.6c0-.3.1-.4.3-.4.4 0 1.5.2 5.7.2 2.1 0 5.5-.2 7.1-.2 3 0 5.2 1.6 6.8 3.8 1.4 1.9 2.2 4.2 2.2 6.4 0 7.4-3.6 10.7-7 11.2v.4c1.2.6 1.8 1.7 2.5 3.1.5.9 2.6 6.1 2.9 6.8.3.5 2.3 5 3.1 6.3.5.8 1.9 1.2 2.8 1.2.3 0 .3.3.3.5v1.4c0 .4-.1.5-.3.5-.3 0-1.3-.2-4.2-.2-1.1 0-2.5.1-3.6.2-1.2-1.4-3.5-8.1-4.2-10.1-1.3-3.9-2.9-8.3-4.7-8.3h-1.3v3c0 3.4.1 10 .2 10.7.1 1.2.4 2.3 1 2.3h1.6c.3 0 .3.2.3.5v1.4c0 .4-.1.5-.6.5-.1 0-1-.2-5-.2s-5 .2-5.4.2c-.3 0-.3-.2-.3-.6v-1.4c0-.3 0-.5.2-.5h1.2c.9 0 1.5-.4 1.5-1.9.1-5.8.1-11.3.1-16.8l-.2-5.5zm5.4 6.3c.7.1 1.2.1 1.5.1 5.1 0 6.3-7.3 6.3-10.1 0-2.7-.6-5.3-1.5-6.5-1.4-1.9-3.1-2.6-4.2-2.6-.7 0-1.2.1-1.5.5-.3.3-.4.9-.4 1.6l-.2 17zM92 30.3c0-1.4-.1-11.9-.2-12.6-.1-1.4-.5-2-1.3-2h-1.8c-.2 0-.3-.1-.3-.4v-1.7c0-.3.1-.4.3-.4.5 0 2.4.2 6.2.2 3.9 0 5.2-.2 5.7-.2.2 0 .3.2.3.5v1.5c0 .3-.1.4-.3.4h-1.1c-1 0-1.5.5-1.5 1.5 0 .6-.1 13.4-.1 14.1v4.5c0 .6.1 14 .1 14.6 0 1.8.6 2.1 1.3 2.1h1.6c.2 0 .3.1.3.4v1.6c0 .3-.1.4-.4.4-.5 0-2-.2-5.7-.2-4 0-5.7.2-6.1.2-.2 0-.3-.1-.3-.5v-1.6c0-.3.1-.4.3-.4h1c.8 0 1.6-.2 1.7-1.6.1-.9.2-13.4.2-16.6l.1-3.8zM120.3 13.7c0-.3.1-.4.3-.4.4 0 2.1.2 4.7.2 3.6 0 4.5-.2 4.9-.2.3 0 .3.1.3.5v1.5c0 .3-.1.4-.3.4h-.9c-.7 0-1.8.4-2.8 3-1.5 3.9-3.2 10.9-4.6 15.7-1 3.1-5.3 18.7-6 20.5-.3.7-.5 1-.9 1-.5 0-.7-.7-.9-1.5-1.4-4.6-4.9-18.7-6-22.7-1.1-4-3-12.5-3.4-14.1-.4-1.4-.9-1.9-1.7-1.9h-1c-.2 0-.2-.3-.2-.6v-1.4c0-.3.1-.4.3-.4.4 0 1.7.2 6.3.2 4 0 5.7-.2 6.1-.2.4 0 .4.2.4.5v1.4c0 .3-.1.5-.3.5h-1.7c-.9 0-1.7.7-1.7 1.4 0 .5 0 1.2.1 2 .3 2.1 1.8 9 2.6 12.4.5 2.2 2.4 10.7 2.9 13h.2c1.1-3.9 3-11.2 3.5-13.3.7-2.9 1.9-7.7 2.5-10.4.4-1.5.4-2.5.4-3.2 0-.7-.5-1.9-1.6-1.9h-1.2c-.2 0-.2-.2-.2-.5l-.1-1.5zM140 32.4c1.8 0 3.4-.2 3.9-.4.7-.3 1.2-.8 1.8-1.8.4-.9.9-2.5.9-3.6 0-.4.1-.5.3-.5l1.1.2c.2.1.4.1.3.5-.1 1-.1 4-.1 6.1 0 2.6.2 5.4.3 6.7.1.4-.1.4-.3.5l-.9.3c-.2.1-.3-.1-.3-.5-.2-.9-.6-2.3-.8-3-.4-1.1-1.4-1.9-2.1-2-1.1-.3-2.2-.4-3.9-.4V38c0 3.1.2 8.8.2 9.9 0 3 .4 4.1.9 4.4.6.4 1.3.5 3.2.5.7 0 2.3-.1 3.1-.2.8-.1 1.9-.7 2.9-1.9s3.1-4.9 3.9-6.2c.2-.3.3-.3.4-.2l.7.6c.2.1.2.3.2.5l-1.7 8.8c-.1.5-.4.9-.9.9-.2 0-1.1-.1-3.5-.1-2.5 0-6.6-.1-13.2-.1-1.4 0-2.5.1-3.2.1-.8.1-1.3.1-1.7.1-.3 0-.4-.2-.4-.7v-1.3c0-.4.1-.5.4-.5h1.2c1.8 0 1.9-.4 1.9-2.4V30.6c0-4.9-.1-12-.1-12.6-.2-1.9-.6-2.3-1.6-2.3h-1.5c-.2 0-.2-.2-.2-.6v-1.4c0-.2.1-.4.3-.4.9 0 2.2.2 5.7.2l13.4-.1c.6 0 1.4-.1 1.5-.1.2 0 .3.1.3.3.2.8 1.4 8.8 1.6 9.4.1.3.1.4-.1.6l-.6.5c-.2.1-.4.1-.5-.3-.2-.5-3.6-5.7-4.5-6.5-.8-.8-1.9-1.5-2.9-1.6l-5.1-.3-.3 17zM158.6 28.2c0-4.3 0-8-.1-9.6-.1-1.9-.6-2.9-1.1-2.9H156c-.2 0-.3-.2-.3-.4v-1.6c0-.3.1-.4.3-.4.4 0 1.5.2 5.7.2 2.1 0 5.5-.2 7.1-.2 3 0 5.2 1.6 6.8 3.8 1.4 1.9 2.2 4.2 2.2 6.4 0 7.4-3.6 10.7-7 11.2v.4c1.2.6 1.8 1.7 2.5 3.1.5.9 2.6 6.1 2.9 6.8.3.5 2.3 5 3.1 6.3.5.8 1.9 1.2 2.8 1.2.3 0 .3.3.3.5v1.4c0 .4-.1.5-.3.5-.3 0-1.3-.2-4.2-.2-1.1 0-2.5.1-3.6.2-1.2-1.4-3.5-8.1-4.2-10.1-1.3-3.9-2.9-8.3-4.7-8.3H164v3c0 3.4.1 10 .2 10.7.1 1.2.4 2.3 1 2.3h1.6c.3 0 .3.2.3.5v1.4c0 .4-.1.5-.6.5-.1 0-1-.2-5-.2s-5 .2-5.4.2c-.3 0-.3-.2-.3-.6v-1.4c0-.3 0-.5.2-.5h1.2c.9 0 1.5-.4 1.5-1.9.1-5.7.1-11.2.1-16.7v-5.6zm5.4 6.3c.7.1 1.2.1 1.5.1 5.1 0 6.3-7.3 6.3-10.1 0-2.7-.6-5.3-1.5-6.5-1.4-1.9-3.1-2.6-4.2-2.6-.7 0-1.2.1-1.5.5-.3.3-.4.9-.4 1.6l-.2 17z"/><g><path d="M0 0h46.4v86.3H0z"/><path class="st2" d="M11.5 2.3H16v7.4h-4.5z"/><path class="st3" d="M30.4 2.3h4.5v7.4h-4.5z"/><path class="st4" d="M30.4 16.5h4.5v13.1h-4.5z"/><path class="st3" d="M16.9 16.5h12.5v13.1H16.9z"/><path class="st5" d="M16.9 2.3h12.5v7.4H16.9z"/><path class="st4" d="M16.9 10.8h12.5v4.5H16.9zM16.9 30.8h12.5v3.6H16.9z"/><path class="st3" d="M16.9 79.8h12.5v3.6H16.9z"/><path class="st6" d="M16.9 35.5h12.5v43.6H16.9z"/><path class="st5" d="M30.4 30.8h4.5v3.6h-4.5zM30.4 63.2h4.5v4.5h-4.5zM11.5 10.8H16v4.5h-4.5z"/><path class="st7" d="M11.5 79.9H16v3.6h-4.5z"/><path class="st4" d="M11.5 16.5H16v13.2h-4.5z"/><path class="st6" d="M2.3 34.4h8.2v44.8H2.3z"/><path class="st2" d="M36 34.4h8.2v28.8H36z"/><path class="st5" d="M36 67.9h8.2v11.2H36z"/><path class="st3" d="M2.3 29.7h8.2v4.7H2.3z"/><path class="st2" d="M36 2.3h8.2v7.4H36z"/><path class="st6" d="M36 9.8h8.2v24.6H36zM2.3 2.3h8.2v27.3H2.3zM36 63.2h8.2v4.7H36z"/><path class="st7" d="M2.3 79.1h8.2v4.3H2.3zM36 79.1h8.2v4.3H36z"/></g><circle cx="211.3" cy="73.5" r="1.9" opacity=".6" fill="#fff"/></svg>